<?xml version="1.0" standalone="no"?><!DOCTYPE svg PUBLIC "-//W3C//DTD SVG 1.1//EN" "http://www.w3.org/Graphics/SVG/1.1/DTD/svg11.dtd"><svg t="1587113160203" class="icon" viewBox="0 0 1024 1024" version="1.1" xmlns="http://www.w3.org/2000/svg" p-id="10075" xmlns:xlink="http://www.w3.org/1999/xlink" width="256" height="256"><defs><style type="text/css"></style></defs><path d="M683.3 745.4c-52.4 30.5-109.5 45.4-171.3 45.4-61.8 0-119.6-14.9-172-45.4-52.4-30.5-93.8-71.2-124.3-123.6-30.5-52.4-46.1-108.7-46.1-170.5s15.6-118.1 46.1-170.5c30.5-52.4 71.9-93.1 124.3-123.6 52.4-30.5 110.3-45.4 172-45.4 61.8 0 118.9 14.9 171.3 45.4 52.4 30.5 94.6 71.2 125.1 123.6 30.5 52.4 46.1 108.7 46.1 170.5s-15.6 118.1-46.1 170.5c-30.5 52.5-72.7 93.1-125.1 123.6z m-40.7-423c-36-36-79.8-54-130.6-54s-94.6 18-130.6 54c-36 35.2-54 78.2-54 129s18 93.8 54 129 79.8 53.2 130.6 53.2 94.6-18 130.6-53.2 54-78.2 54-129-18-93.8-54-129z m-50 208.8C569.9 553.1 543.3 564 512 564s-57.9-10.9-80.6-32.8c-22.7-21.9-33.6-48.5-33.6-79.8 0-31.3 10.9-57.9 33.6-79.8C454.1 349 480.7 338 512 338s57.9 10.9 80.6 33.6c22.7 21.9 33.6 48.5 33.6 79.8 0 31.3-11 57.9-33.6 79.8z m-80.6 294c102.4 0 193.9-32.1 246.3-82.9l83.7 75.9c-32.8 28.9-79 51.6-137.6 68C645.7 903.4 581.6 912 512 912c-71.2 0-136.1-8.6-195.5-26.6-59.4-17.2-105.6-40.7-137.6-69.6l82.9-77.4c50.8 53.2 144.6 86.8 250.2 86.8z m0 0" p-id="10076" fill="#8a8a8a"></path></svg>