<?xml version="1.0" standalone="no"?><!DOCTYPE svg PUBLIC "-//W3C//DTD SVG 1.1//EN" "http://www.w3.org/Graphics/SVG/1.1/DTD/svg11.dtd"><svg t="1587111903047" class="icon" viewBox="0 0 1181 1024" version="1.1" xmlns="http://www.w3.org/2000/svg" p-id="6620" xmlns:xlink="http://www.w3.org/1999/xlink" width="295.25" height="256"><defs><style type="text/css"></style></defs><path d="M1122.461538 0h-1063.384615c-33.476923 0-59.076923 25.6-59.076923 59.076923v748.307692c0 33.476923 25.6 59.076923 59.076923 59.076923h452.923077v78.769231h-137.846154c-21.661538 0-39.384615 17.723077-39.384615 39.384616s17.723077 39.384615 39.384615 39.384615h433.230769c21.661538 0 39.384615-17.723077 39.384616-39.384615s-17.723077-39.384615-39.384616-39.384616h-137.846153v-78.769231h452.923076c33.476923 0 59.076923-25.6 59.076924-59.076923v-748.307692c0-33.476923-25.6-59.076923-59.076924-59.076923z m-19.692307 689.230769h-1024v-590.769231h1024v590.769231z" p-id="6621" fill="#d2d2d2"></path></svg>