<?xml version="1.0" standalone="no"?><!DOCTYPE svg PUBLIC "-//W3C//DTD SVG 1.1//EN" "http://www.w3.org/Graphics/SVG/1.1/DTD/svg11.dtd"><svg t="1587113043644" class="icon" viewBox="0 0 1024 1024" version="1.1" xmlns="http://www.w3.org/2000/svg" p-id="8266" xmlns:xlink="http://www.w3.org/1999/xlink" width="256" height="256"><defs><style type="text/css"></style></defs><path d="M894.784 592.448c-65.6 141.824-193.888 234.208-340.96 248.992l0 106.592 83.008 0c28.864 0 41.504-7.232 41.504 20.736s-20.032 41.504-48.896 41.504l-220.864 0c-28.864 0-41.504-13.504-41.504-41.504s12.64-20.736 41.504-20.736l83.008 0 0-105.024c-155.68-7.744-293.056-102.112-361.728-250.56-11.808-25.568-17.44-47.968 8.928-59.456 26.336-11.424 50.4 15.968 62.272 41.504 54.624 118.08 188.864 209.376 311.264 209.376s256.672-91.36 311.264-209.376c11.808-25.536 35.872-52.928 62.24-41.504 26.368 11.456 20.768 33.92 8.928 59.488zM691.552 588.032c-23.04 81.28-97.216 114.496-179.264 114.496-98.592 0-156.288-76.288-166.016-148.832l0-373.536c3.904-75.776 67.424-166.016 166.016-166.016s165.376 45.472 186.784 166.016l0 394.304c0 3.392-2.912 8.096-7.52 13.568z" p-id="8267" fill="#8a8a8a"></path></svg>