<?xml version="1.0" standalone="no"?><!DOCTYPE svg PUBLIC "-//W3C//DTD SVG 1.1//EN" "http://www.w3.org/Graphics/SVG/1.1/DTD/svg11.dtd"><svg t="1587112087607" class="icon" viewBox="0 0 1024 1024" version="1.1" xmlns="http://www.w3.org/2000/svg" p-id="7559" xmlns:xlink="http://www.w3.org/1999/xlink" width="256" height="256"><defs><style type="text/css"></style></defs><path d="M713.91232 320.53248 204.38016 320.53248c-26.12224 0-47.36 21.23776-47.36 47.34976l0 508.98944c0 26.10176 21.23776 47.34976 47.36 47.34976l509.53216 0c26.112 0 47.36-21.248 47.36-47.34976L761.27232 367.872C761.27232 341.76 740.02432 320.53248 713.91232 320.53248zM681.82016 374.4256c11.20256 0 20.2752 9.08288 20.2752 20.28544 0 11.2128-9.08288 20.29568-20.2752 20.29568-11.22304 0-20.29568-9.08288-20.29568-20.29568C661.52448 383.50848 670.59712 374.4256 681.82016 374.4256zM609.09568 374.4256c11.22304 0 20.29568 9.08288 20.29568 20.28544 0 11.2128-9.08288 20.29568-20.29568 20.29568-11.20256 0-20.2752-9.08288-20.2752-20.29568C588.82048 383.50848 597.90336 374.4256 609.09568 374.4256zM707.15392 870.0928 211.13856 870.0928 211.13856 465.38752l496.00512 0L707.14368 870.0928zM840.96 99.79904l-509.5424 0c-26.112 0-47.34976 21.23776-47.34976 47.34976l0 139.24352 54.10816 0 0-41.728 496.01536 0 0 404.70528-17.58208 0 0 54.1184 24.34048 0c26.112 0 47.36-21.248 47.36-47.34976L888.30976 147.13856C888.32 121.02656 867.072 99.79904 840.96 99.79904zM736.1536 194.27328c-11.2128 0-20.28544-9.08288-20.28544-20.28544 0-11.20256 9.08288-20.28544 20.28544-20.28544s20.28544 9.08288 20.28544 20.28544C756.43904 185.1904 747.35616 194.27328 736.1536 194.27328zM808.86784 194.27328c-11.22304 0-20.29568-9.08288-20.29568-20.28544 0-11.20256 9.08288-20.28544 20.29568-20.28544 11.20256 0 20.2752 9.08288 20.2752 20.28544C829.15328 185.1904 820.0704 194.27328 808.86784 194.27328z" p-id="7560" fill="#d2d2d2"></path></svg>